    <svg display='none' xmlns="http://www.w3.org/2000/svg">
        <symbol id='dt' width="22" height="19" viewBox="0 0 22 19">
            <g>
                <path fill-rule="evenodd" clip-rule="evenodd"
                    d="M2.7451 10.8737H0L10.9804 0L22 10.9124H19.2549V19H13.2157V13.5825H8.78431V19H2.70588L2.7451 10.8737Z"
                    fill="#C4C4CF" />
            </g>
        </symbol>
    </svg>

    <svg display='none' xmlns="http://www.w3.org/2000/svg">
        <symbol id='struct' width="22" height="24" viewBox="0 0 22 24" fill="none">
            <path fill-rule="evenodd" clip-rule="evenodd"
                d="M7.90494 10.0784C7.49788 9.35519 6.88591 8.76871 6.14619 8.39293C5.40646 8.01716 4.5721 7.86891 3.74829 7.96689C2.92447 8.06487 2.1481 8.40468 1.51703 8.94349C0.88597 9.48229 0.428474 10.196 0.202222 10.9945C-0.0240289 11.7931 -0.00890585 12.6408 0.245685 13.4308C0.500275 14.2208 0.982936 14.9177 1.63282 15.4336C2.2827 15.9496 3.0707 16.2614 3.89748 16.3299C4.72426 16.3984 5.55281 16.2205 6.27866 15.8186C6.76364 15.55 7.19071 15.1881 7.53525 14.7536C7.8798 14.3192 8.13501 13.8208 8.28618 13.2872C8.43735 12.7537 8.48149 12.1954 8.41606 11.6447C8.35063 11.094 8.17692 10.5617 7.90494 10.0784Z"
                fill="#C4C4CF" />
            <path fill-rule="evenodd" clip-rule="evenodd"
                d="M16.038 18.6196L4.69922 12.3371L5.06062 11.5687L17.077 4.78906L17.7998 6.0546L17.6191 18.2128L18.3871 19.5687L16.9415 20.7439L16.038 18.6196Z"
                stroke="#C4C4CF" stroke-width="2" stroke-miterlimit="22.93" />
            <path fill-rule="evenodd" clip-rule="evenodd"
                d="M21.4557 17.7152C21.0487 16.9919 20.4367 16.4054 19.697 16.0296C18.9572 15.6539 18.1229 15.5056 17.2991 15.6036C16.4753 15.7016 15.6989 16.0414 15.0678 16.5802C14.4368 17.119 13.9793 17.8327 13.753 18.6313C13.5268 19.4298 13.5419 20.2776 13.7965 21.0675C14.0511 21.8575 14.5337 22.5544 15.1836 23.0704C15.8335 23.5863 16.6215 23.8982 17.4483 23.9667C18.275 24.0352 19.1036 23.8572 19.8294 23.4553C20.3144 23.1867 20.7415 22.8248 21.086 22.3903C21.4306 21.9559 21.6858 21.4575 21.837 20.924C21.9881 20.3904 22.0323 19.8322 21.9668 19.2814C21.9014 18.7307 21.7277 18.1984 21.4557 17.7152Z"
                fill="#C4C4CF" />
            <path fill-rule="evenodd" clip-rule="evenodd"
                d="M21.4557 2.16829C21.0487 1.44504 20.4367 0.858551 19.697 0.482775C18.9572 0.106999 18.1229 -0.0412443 17.2991 0.0567336C16.4753 0.154711 15.6989 0.494524 15.0678 1.03333C14.4368 1.57214 13.9793 2.28582 13.753 3.08439C13.5268 3.88296 13.5419 4.73068 13.7965 5.52067C14.0511 6.31066 14.5337 7.00755 15.1836 7.52348C15.8335 8.03941 16.6215 8.35129 17.4483 8.41979C18.275 8.48829 19.1036 8.31035 19.8294 7.9084C20.3144 7.63984 20.7415 7.27791 21.086 6.84346C21.4306 6.40902 21.6858 5.91065 21.837 5.37708C21.9881 4.84351 22.0323 4.28528 21.9668 3.73457C21.9014 3.18385 21.7277 2.65153 21.4557 2.16829Z"
                fill="#C4C4CF" />
        </symbol>
    </svg>