       <svg  xmlns="http://www.w3.org/2000/svg">
        <symbol id='st' width="22" height="24" viewBox="0 0 22 24" >
<path fill-rule="evenodd" clip-rule="evenodd" d="M7.90494 10.0784C7.49788 9.35519 6.88591 8.76871 6.14619 8.39293C5.40646 8.01716 4.5721 7.86891 3.74829 7.96689C2.92447 8.06487 2.1481 8.40468 1.51703 8.94349C0.88597 9.48229 0.428474 10.196 0.202222 10.9945C-0.0240289 11.7931 -0.00890585 12.6408 0.245685 13.4308C0.500275 14.2208 0.982936 14.9177 1.63282 15.4336C2.2827 15.9496 3.0707 16.2614 3.89748 16.3299C4.72426 16.3984 5.55281 16.2205 6.27866 15.8186C6.76364 15.55 7.19071 15.1881 7.53525 14.7536C7.8798 14.3192 8.13501 13.8208 8.28618 13.2872C8.43735 12.7537 8.48149 12.1954 8.41606 11.6447C8.35063 11.094 8.17692 10.5617 7.90494 10.0784Z" fill="#C4C4CF"/>
<path fill-rule="evenodd" clip-rule="evenodd" d="M16.038 18.6196L4.69922 12.3371L5.06062 11.5687L17.077 4.78906L17.7998 6.0546L17.6191 18.2128L18.3871 19.5687L16.9415 20.7439L16.038 18.6196Z" stroke="#C4C4CF" stroke-width="2" stroke-miterlimit="22.93" fill='none'/>
<path fill-rule="evenodd" clip-rule="evenodd" d="M21.4557 17.7152C21.0487 16.9919 20.4367 16.4054 19.697 16.0296C18.9572 15.6539 18.1229 15.5056 17.2991 15.6036C16.4753 15.7016 15.6989 16.0414 15.0678 16.5802C14.4368 17.119 13.9793 17.8327 13.753 18.6313C13.5268 19.4298 13.5419 20.2776 13.7965 21.0675C14.0511 21.8575 14.5337 22.5544 15.1836 23.0704C15.8335 23.5863 16.6215 23.8982 17.4483 23.9667C18.275 24.0352 19.1036 23.8572 19.8294 23.4553C20.3144 23.1867 20.7415 22.8248 21.086 22.3903C21.4306 21.9559 21.6858 21.4575 21.837 20.924C21.9881 20.3904 22.0323 19.8322 21.9668 19.2814C21.9014 18.7307 21.7277 18.1984 21.4557 17.7152Z" fill="#C4C4CF"/>
<path fill-rule="evenodd" clip-rule="evenodd" d="M21.4557 2.16829C21.0487 1.44504 20.4367 0.858551 19.697 0.482775C18.9572 0.106999 18.1229 -0.0412443 17.2991 0.0567336C16.4753 0.154711 15.6989 0.494524 15.0678 1.03333C14.4368 1.57214 13.9793 2.28582 13.753 3.08439C13.5268 3.88296 13.5419 4.73068 13.7965 5.52067C14.0511 6.31066 14.5337 7.00755 15.1836 7.52348C15.8335 8.03941 16.6215 8.35129 17.4483 8.41979C18.275 8.48829 19.1036 8.31035 19.8294 7.9084C20.3144 7.63984 20.7415 7.27791 21.086 6.84346C21.4306 6.40902 21.6858 5.91065 21.837 5.37708C21.9881 4.84351 22.0323 4.28528 21.9668 3.73457C21.9014 3.18385 21.7277 2.65153 21.4557 2.16829Z" fill="#C4C4CF"/>   
</symbol>

<symbol id='dt' width="22" height="19" viewBox="0 0 22 19">
<path fill-rule="evenodd" clip-rule="evenodd"
d="M2.7451 10.8737H0L10.9804 0L22 10.9124H19.2549V19H13.2157V13.5825H8.78431V19H2.70588L2.7451 10.8737Z"
fill="#C4C4CF" />
</symbol>

<symbol id='sist' width="20" height="20" viewBox="-2 0 20 20" >
<path fill-rule="evenodd" clip-rule="evenodd" d="M9 9V0C7.21997 0 5.47991 0.527841 3.99987 1.51677C2.51983 2.50571 1.36628 3.91131 0.685088 5.55585C0.00389954 7.20038 -0.17433 9.00998 0.172937 10.7558C0.520204 12.5016 1.37737 14.1053 2.63604 15.364C3.89472 16.6226 5.49836 17.4798 7.24419 17.8271C8.99002 18.1743 10.7996 17.9961 12.4442 17.3149C14.0887 16.6337 15.4943 15.4802 16.4832 14.0001C17.4722 12.5201 18 10.78 18 9C18.0049 7.7378 17.7397 6.48916 17.2223 5.33789C16.7048 4.18661 15.9471 3.15933 15 2.325L9 9Z" fill="#C4C4CF"/>
</symbol>

<symbol id='obj' width="22" height="20" viewBox="-1 0 22 20" fill="none">
<path d="M18.6263 0H1.37374C0.615043 0 0 0.658658 0 1.47115V16.5288C0 17.3413 0.615043 18 1.37374 18H18.6263C19.385 18 20 17.3413 20 16.5288V1.47115C20 0.658658 19.385 0 18.6263 0Z" fill="#C4C4CF"/>
<path fill-rule="evenodd" clip-rule="evenodd" d="M16.1606 15.6632C16.6321 15.6632 17.0843 15.4626 17.4177 15.1055C17.7511 14.7485 17.9384 14.2642 17.9384 13.7593C17.9384 13.2544 17.7511 12.7701 17.4177 12.4131C17.0843 12.0561 16.6321 11.8555 16.1606 11.8555C15.6891 11.8555 15.2369 12.0561 14.9035 12.4131C14.5701 12.7701 14.3828 13.2544 14.3828 13.7593C14.3828 14.2642 14.5701 14.7485 14.9035 15.1055C15.2369 15.4626 15.6891 15.6632 16.1606 15.6632Z" fill="#26354B"/>
<path d="M17.0502 1.46875H2.90878C2.21702 1.46875 1.65625 2.06929 1.65625 2.8101V7.78606C1.65625 8.52686 2.21702 9.1274 2.90878 9.1274H17.0502C17.7419 9.1274 18.3027 8.52686 18.3027 7.78606V2.8101C18.3027 2.06929 17.7419 1.46875 17.0502 1.46875Z" fill="#26354B"/>
<path fill-rule="evenodd" clip-rule="evenodd" d="M4.03981 15.6649C4.37718 15.6151 4.69411 15.4627 4.9529 15.2256C5.21169 14.9885 5.40145 14.6769 5.49962 14.3276C5.59779 13.9784 5.60023 13.6064 5.50665 13.2557C5.41307 12.905 5.22742 12.5905 4.97176 12.3496C4.7161 12.1087 4.4012 11.9514 4.06452 11.8966C3.72784 11.8418 3.38354 11.8917 3.07257 12.0404C2.7616 12.1891 2.49705 12.4303 2.31038 12.7353C2.12372 13.0403 2.02279 13.3964 2.01961 13.7611C2.01722 14.0345 2.06987 14.3053 2.17397 14.555C2.27806 14.8047 2.43117 15.0274 2.62286 15.2081C2.81455 15.3887 3.04034 15.523 3.28484 15.6019C3.52935 15.6807 3.78685 15.7022 4.03981 15.6649Z" fill="#26354B"/>
</symbol>

<symbol id='map' width="25" height="18" viewBox="0 -2 25 18" fill="none">
<path fill-rule="evenodd" clip-rule="evenodd" d="M1.21225 0.000814933H14.9061C15.1818 0.385774 15.3799 0.818741 15.4898 1.27647C15.6462 2.26183 15.4562 3.27002 14.951 4.13571C14.5582 4.77169 14.057 5.33704 13.4694 5.80727C12.8148 6.3052 12.0885 6.70543 11.3143 6.99495L9.92245 7.47882L8.39592 8.00668C5.43265 9.01841 3.90612 10.3381 3.59184 12.0976C3.41023 13.0572 3.41023 14.0413 3.59184 15.0008H1.21225C0.886673 14.9894 0.578331 14.8546 0.352196 14.6249C0.12606 14.3951 -0.000207576 14.0883 2.56155e-07 13.7691V1.1885C2.56155e-07 0.873505 0.127719 0.571413 0.355059 0.348679C0.582399 0.125945 0.890738 0.000814933 1.21225 0.000814933ZM17.3306 0.000814933L17.6 0.836592C17.9024 2.35028 17.614 3.92004 16.7918 5.23542C16.2851 6.09959 15.6146 6.86102 14.8163 7.47882C13.971 8.04225 13.0491 8.48648 12.0776 8.79847L10.6408 9.28234L8.97959 9.98615C6.77959 10.734 5.83673 11.5697 5.56735 12.6254C5.38924 13.4076 5.38924 14.2186 5.56735 15.0008H20.7429C21.0763 15.0008 21.396 14.871 21.6318 14.6401C21.8675 14.4091 22 14.0958 22 13.7691V1.1885C22.0001 1.02876 21.9673 0.870637 21.9036 0.723596C21.8399 0.576556 21.7466 0.443618 21.6292 0.332736C21.5119 0.221855 21.3729 0.135309 21.2206 0.0782767C21.0683 0.0212447 20.9058 -0.00510141 20.7429 0.000814933H17.3306Z" fill="#C4C4CF"/>
</symbol>

<symbol id='vid' width="25" height="16" viewBox="0 -2 25 16" fill="none">
<path d="M1.15619 0H15.6086C15.8707 0.0570814 16.1046 0.20298 16.2703 0.412702C16.436 0.622424 16.5233 0.882918 16.5171 1.14956V12.8504C16.5171 13.1444 16.3996 13.4264 16.1905 13.6343C15.9814 13.8422 15.6978 13.9589 15.4022 13.9589H1.15619C0.856574 13.9591 0.568581 13.8437 0.352901 13.6369C0.137221 13.4301 0.0107006 13.1482 0 12.8504L0 1.14956C0 0.844678 0.121813 0.552283 0.338641 0.336698C0.55547 0.121114 0.849552 0 1.15619 0V0Z" fill="#C4C4CF"/>
<path fill-rule="evenodd" clip-rule="evenodd" d="M18.5414 6.9399C18.5331 7.36456 18.5469 7.78937 18.5827 8.21262C18.5827 8.99268 18.9543 9.28007 19.9867 10.1012C21.019 10.9223 21.2667 11.2918 21.8448 11.6202C22.4229 11.9487 23.001 11.6202 23.001 10.8812V6.77567V2.38271C23.001 1.5616 22.5881 1.10998 21.8448 1.5616C21.1838 2.10519 20.5629 2.69517 19.9867 3.32699C18.9543 4.23022 18.6653 4.55866 18.5827 5.46189C18.5001 6.36512 18.5827 6.36512 18.5827 6.9399H18.5414Z" fill="#C4C4CF"/>
</symbol>
<symbol id='message' width="20" height="20" viewBox="0 0 20 20" fill="none">
<path fill-rule="evenodd" clip-rule="evenodd" d="M10.019 0C12.6697 0.0100784 15.2083 1.0701 17.079 2.94795C18.9497 4.82579 20 7.36842 20 10.019V18.0952C20 18.6004 19.7993 19.0849 19.4421 19.4421C19.0849 19.7993 18.6004 20 18.0952 20H10.019C7.36842 20 4.82579 18.9497 2.94795 17.079C1.0701 15.2083 0.0100784 12.6697 0 10.019H0C0 7.36183 1.05558 4.81345 2.93451 2.93451C4.81345 1.05558 7.36183 0 10.019 0V0Z" fill="#C4C4CF"/>
<path fill-rule="evenodd" clip-rule="evenodd" d="M4.95389 6.02112C4.70664 7.29789 4.8255 8.61855 5.29675 9.83065C6.24913 12.4973 8.83961 16.6878 11.6968 17.4497C12.3434 17.6417 13.0267 17.6761 13.6894 17.5502C14.3521 17.4243 14.9751 17.1416 15.5063 16.7259C16.9158 15.8497 16.2682 15.164 15.5063 14.0592C14.7444 12.9545 14.6682 12.8402 13.6777 12.6497C12.6872 12.4592 11.4301 15.2402 9.37294 12.0021C9.14437 11.6592 8.95389 11.4306 8.76342 11.0497C8.57294 10.6687 7.35389 8.38303 8.34437 7.62112C9.33485 6.85922 11.011 6.93541 9.75389 3.8116C9.48723 3.39255 9.25866 2.66874 8.45866 2.51636C7.65866 2.36398 6.59199 3.31636 6.17294 3.69731C5.54067 4.33061 5.11557 5.14095 4.95389 6.02112Z" fill="#26354B"/>
</symbol>

<symbol id='disp' width="19" height="19" viewBox="-1 0 19 19" fill="none">
<path fill-rule="evenodd" clip-rule="evenodd" d="M8.99828 10.2346C10.0445 10.2428 11.0695 9.94751 11.9429 9.38625C12.8164 8.82499 13.4986 8.02316 13.9029 7.08283C14.3072 6.1425 14.4152 5.10621 14.2132 4.10587C14.0111 3.10554 13.5082 2.18641 12.7684 1.4655C12.0286 0.744588 11.0854 0.2545 10.0589 0.0576255C9.03236 -0.139249 7.96893 -0.0340049 7.00397 0.35996C6.03901 0.753926 5.21618 1.41879 4.64022 2.26992C4.06426 3.12105 3.76123 4.11994 3.7697 5.13943C3.78091 6.48736 4.33537 7.777 5.3135 8.73016C6.29163 9.68333 7.61504 10.2236 8.99828 10.2346Z" fill="#C4C4CF"/>
<path fill-rule="evenodd" clip-rule="evenodd" d="M9 11.9883C10.948 11.9876 12.8505 12.5618 14.457 13.6353C16.0635 14.7088 17.2987 16.2312 18 18.0022H0C0.701262 16.2312 1.93649 14.7088 3.54302 13.6353C5.14955 12.5618 7.05205 11.9876 9 11.9883Z" fill="#C4C4CF"/>
</symbol>

<symbol id='engin' width="19" height="19" viewBox="-1 0 19 19" fill="none">
<path fill-rule="evenodd" clip-rule="evenodd" d="M8.99828 10.2346C10.0445 10.2428 11.0695 9.94751 11.9429 9.38625C12.8164 8.82499 13.4986 8.02316 13.9029 7.08283C14.3072 6.1425 14.4152 5.10621 14.2132 4.10587C14.0111 3.10554 13.5082 2.18641 12.7684 1.4655C12.0286 0.744588 11.0854 0.2545 10.0589 0.0576255C9.03236 -0.139249 7.96893 -0.0340049 7.00397 0.35996C6.03901 0.753926 5.21618 1.41879 4.64022 2.26992C4.06426 3.12105 3.76123 4.11994 3.7697 5.13943C3.78091 6.48736 4.33537 7.777 5.3135 8.73016C6.29163 9.68333 7.61504 10.2236 8.99828 10.2346Z" fill="#C4C4CF"/>
<path fill-rule="evenodd" clip-rule="evenodd" d="M9 11.9883C10.948 11.9876 12.8505 12.5618 14.457 13.6353C16.0635 14.7088 17.2987 16.2312 18 18.0022H0C0.701262 16.2312 1.93649 14.7088 3.54302 13.6353C5.14955 12.5618 7.05205 11.9876 9 11.9883Z" fill="#C4C4CF"/>
</symbol>

<path d="M48 24C48 10.7452 37.2548 0 24 0C10.7452 0 0 10.7452 0 24C0 37.2548 10.7452 48 24 48C37.2548 48 48 37.2548 48 24Z" fill="#263147"/>

<symbol id='person' width="48" height="48" viewBox="0 0 48 48" fill="none">
<path d="M48 24C48 10.7452 37.2548 0 24 0C10.7452 0 0 10.7452 0 24C0 37.2548 10.7452 48 24 48C37.2548 48 48 37.2548 48 24Z" fill="#263147"/>
<path fill-rule="evenodd" clip-rule="evenodd" d="M40.6822 41.2379C36.3733 45.4077 30.4892 48.0023 24.0027 48.0023C17.4698 48.0023 11.5393 45.3614 7.23047 41.0989C8.85209 38.1336 11.076 35.817 13.6243 34.1954C16.7285 32.2494 20.3424 31.2301 23.91 31.2301C27.5239 31.2301 31.0915 32.2031 34.1957 34.1954C36.7903 35.8633 39.0606 38.1799 40.6822 41.1915V41.2379ZM24.5123 6.53516C27.5239 6.53516 30.2575 7.73979 32.2034 9.73207C34.1957 11.7243 35.4003 14.4116 35.4003 17.4232C35.4003 20.4348 34.1957 23.1684 32.2034 25.1143C30.2112 27.1066 27.5239 28.3112 24.5123 28.3112C21.5007 28.3112 18.7671 27.1066 16.8212 25.1143C14.8289 23.122 13.6243 20.4348 13.6243 17.4232C13.6243 14.4116 14.8289 11.678 16.8212 9.73207C18.8135 7.73979 21.5007 6.53516 24.5123 6.53516Z" fill="#505A75"/>
</symbol>
    </svg>

